# xmcd
#
# Track frame offsets: 
#        150
#        24885
#        41663
#        63571
#        81099
#        97457
#        112825
#        134028
#        149313
#        164336
#        185779
#        199939
#        222694
#
# Disc length: 3186 seconds
#
# Revision: 0
# Processed by: cddbd v1.5.2PL0 Copyright (c) Steve Scherf et al.
# Submitted via: ExactAudioCopy v1.0b1
#
DISCID=cc0c700d
DTITLE=Emmylou Harris - Hard Bargain
DYEAR=2011
DGENRE=
TTITLE0=The Road
TTITLE1=Home Sweet Home
TTITLE2=My Name Is Emmett Till
TTITLE3=Goodnight Old World
TTITLE4=New Orleans
TTITLE5=Big Black Dog
TTITLE6=Lonely Girl
TTITLE7=Hard Bargain
TTITLE8=Six White Cadillacs
TTITLE9=The Ship On This Arm
TTITLE10=Darlin' Kate
TTITLE11=Nobody
TTITLE12=Cross Yourself
EXTD=
EXTT0=
EXTT1=
EXTT2=
EXTT3=
EXTT4=
EXTT5=
EXTT6=
EXTT7=
EXTT8=
EXTT9=
EXTT10=
EXTT11=
EXTT12=
PLAYORDER=
